Traceback (most recent call last):
  File "/data/ling_shared/garciag/SkeletonV1/Supercomputer/../Src/3DSpin.py", line 124, in <module>
    mytck,myu = itp.splprep([plotz,plotr])
  File "/home/garciag/.local/lib/python3.10/site-packages/scipy/interpolate/_fitpack_py.py", line 155, in splprep
    res = _impl.splprep(x, w, u, ub, ue, k, task, s, t, full_output, nest, per,
  File "/home/garciag/.local/lib/python3.10/site-packages/scipy/interpolate/_fitpack_impl.py", line 280, in splprep
    t, c, o = _fitpack._parcur(ravel(transpose(x)), w, u, ub, ue, k,
ValueError: Invalid inputs.
ffmpeg version 5.0.1-static https://johnvansickle.com/ffmpeg/  Copyright (c) 2000-2022 the FFmpeg developers
  built with gcc 8 (Debian 8.3.0-6)
  configuration: --enable-gpl --enable-version3 --enable-static --disable-debug --disable-ffplay --disable-indev=sndio --disable-outdev=sndio --cc=gcc --enable-fontconfig --enable-frei0r --enable-gnutls --enable-gmp --enable-libgme --enable-gray --enable-libfribidi --enable-libass --enable-libfreetype --enable-libmp3lame --enable-libopencore-amrnb --enable-libopencore-amrwb --enable-libopenjpeg --enable-librubberband --enable-libsoxr --enable-libspeex --enable-libsrt --enable-libvorbis --enable-libopus --enable-libtheora --enable-libvidstab --enable-libvo-amrwbenc --enable-libvpx --enable-libwebp --enable-libx264 --enable-libx265 --enable-libxml2 --enable-libxvid --enable-libzimg
  libavutil      57. 17.100 / 57. 17.100
  libavcodec     59. 18.100 / 59. 18.100
  libavformat    59. 16.100 / 59. 16.100
  libavdevice    59.  4.100 / 59.  4.100
  libavfilter     8. 24.100 /  8. 24.100
  libswscale      6.  4.100 /  6.  4.100
  libswresample   4.  3.100 /  4.  3.100
  libpostproc    56.  3.100 / 56.  3.100
Input #0, image2, from '../AnimationData/Spin/%03dspin.png':
  Duration: 00:00:14.40, start: 0.000000, bitrate: N/A
  Stream #0:0: Video: png, rgba(pc), 1920x1440 [SAR 11811:11811 DAR 4:3], 25 fps, 25 tbr, 25 tbn
Stream mapping:
  Stream #0:0 -> #0:0 (png (native) -> h264 (libx264))
Press [q] to stop, [?] for help
[libx264 @ 0xb9b8780] using SAR=1/1
[libx264 @ 0xb9b8780] using cpu capabilities: MMX2 SSE2Fast SSSE3 SSE4.2 AVX FMA3 BMI2 AVX2
[libx264 @ 0xb9b8780] profile High, level 5.1, 4:2:0, 8-bit
[libx264 @ 0xb9b8780] 264 - core 164 r3094 bfc87b7 - H.264/MPEG-4 AVC codec - Copyleft 2003-2022 - http://www.videolan.org/x264.html - options: cabac=1 ref=3 deblock=1:0:0 analyse=0x3:0x113 me=hex subme=7 psy=1 psy_rd=1.00:0.00 mixed_ref=1 me_range=16 chroma_me=1 trellis=1 8x8dct=1 cqm=0 deadzone=21,11 fast_pskip=1 chroma_qp_offset=-2 threads=45 lookahead_threads=7 sliced_threads=0 nr=0 decimate=1 interlaced=0 bluray_compat=0 constrained_intra=0 bframes=3 b_pyramid=2 b_adapt=1 b_bias=0 direct=1 weightb=1 open_gop=0 weightp=2 keyint=250 keyint_min=25 scenecut=40 intra_refresh=0 rc_lookahead=40 rc=crf mbtree=1 crf=23.0 qcomp=0.60 qpmin=0 qpmax=69 qpstep=4 ip_ratio=1.40 aq=1:1.00
Output #0, mp4, to '../AnimationData/Spin/Spin.mp4':
  Metadata:
    encoder         : Lavf59.16.100
  Stream #0:0: Video: h264 (avc1 / 0x31637661), yuv420p(tv, progressive), 1920x1440 [SAR 1:1 DAR 4:3], q=2-31, 72 fps, 18432 tbn
    Metadata:
      encoder         : Lavc59.18.100 libx264
    Side data:
      cpb: bitrate max/min/avg: 0/0/0 buffer size: 0 vbv_delay: N/A
frame=    3 fps=0.0 q=0.0 size=       0kB time=00:00:00.00 bitrate=N/A dup=2 drop=0 speed=   0x    frame=   29 fps=0.0 q=0.0 size=       0kB time=00:00:00.00 bitrate=N/A dup=2 drop=0 speed=   0x    frame=   64 fps= 63 q=0.0 size=       0kB time=00:00:00.00 bitrate=N/A dup=2 drop=0 speed=   0x    frame=  103 fps= 68 q=32.0 size=       0kB time=00:00:00.15 bitrate=   2.5kbits/s dup=2 drop=0 speed=0.101x    frame=  149 fps= 74 q=32.0 size=     512kB time=00:00:00.79 bitrate=5298.2kbits/s dup=2 drop=0 speed=0.393x    frame=  197 fps= 78 q=32.0 size=    1024kB time=00:00:01.45 bitrate=5752.2kbits/s dup=2 drop=0 speed=0.578x    frame=  243 fps= 80 q=32.0 size=    1280kB time=00:00:02.09 bitrate=4999.9kbits/s dup=2 drop=0 speed=0.69x    frame=  289 fps= 82 q=32.0 size=    1536kB time=00:00:02.73 bitrate=4598.9kbits/s dup=2 drop=0 speed=0.772x    frame=  334 fps= 83 q=32.0 size=    1792kB time=00:00:03.36 bitrate=4367.7kbits/s dup=2 drop=0 speed=0.831x    frame=  362 fps= 78 q=-1.0 Lsize=    2601kB time=00:00:04.98 bitrate=4273.3kbits/s dup=2 drop=0 speed=1.07x    
video:2598kB audio:0kB subtitle:0kB other streams:0kB global headers:0kB muxing overhead: 0.105277%
[libx264 @ 0xb9b8780] frame I:2     Avg QP:23.63  size: 58672
[libx264 @ 0xb9b8780] frame P:337   Avg QP:24.31  size:  7314
[libx264 @ 0xb9b8780] frame B:23    Avg QP:28.34  size:  3377
[libx264 @ 0xb9b8780] consecutive B-frames: 87.8% 10.5%  1.7%  0.0%
[libx264 @ 0xb9b8780] mb I  I16..4: 28.8% 58.4% 12.8%
[libx264 @ 0xb9b8780] mb P  I16..4:  0.4%  1.1%  0.1%  P16..4:  9.8%  3.6%  1.4%  0.0%  0.0%    skip:83.6%
[libx264 @ 0xb9b8780] mb B  I16..4:  0.1%  0.2%  0.0%  B16..8: 14.5%  1.5%  0.1%  direct: 0.3%  skip:83.3%  L0:43.9% L1:52.1% BI: 4.0%
[libx264 @ 0xb9b8780] 8x8 transform intra:67.7% inter:58.8%
[libx264 @ 0xb9b8780] coded y,uvDC,uvAC intra: 7.9% 4.5% 3.5% inter: 2.0% 3.4% 1.8%
[libx264 @ 0xb9b8780] i16 v,h,dc,p: 70% 21%  9%  0%
[libx264 @ 0xb9b8780] i8 v,h,dc,ddl,ddr,vr,hd,vl,hu: 19%  6% 73%  0%  1%  0%  0%  0%  0%
[libx264 @ 0xb9b8780] i4 v,h,dc,ddl,ddr,vr,hd,vl,hu: 43% 16% 23%  3%  4%  3%  2%  3%  3%
[libx264 @ 0xb9b8780] i8c dc,h,v,p: 93%  3%  4%  1%
[libx264 @ 0xb9b8780] Weighted P-Frames: Y:0.0% UV:0.0%
[libx264 @ 0xb9b8780] ref P L0: 76.8%  8.3% 11.1%  3.8%
[libx264 @ 0xb9b8780] ref B L0: 88.2% 11.5%  0.3%
[libx264 @ 0xb9b8780] kb/s:4232.34
